<svg xmlns="http://www.w3.org/2000/svg" width="21.839" height="18.521" viewBox="0 0 21.839 18.521">
  <g id="Heart" transform="translate(0.1 0.1)">
    <path id="Shape" d="M147.545-489.449l-9.362-9.331a5.282,5.282,0,0,1,.132-7.468,5.28,5.28,0,0,1,7.335,0l1.894,1.863,1.848-1.863a5.281,5.281,0,0,1,7.468.132,5.28,5.28,0,0,1,0,7.335Zm-5.62-16.8a3.7,3.7,0,0,0-2.648,1.062,3.757,3.757,0,0,0,0,5.281l8.268,8.284,8.238-8.253a3.757,3.757,0,0,0-.1-5.312,3.757,3.757,0,0,0-5.207,0l-2.925,2.987-2.972-2.987A3.711,3.711,0,0,0,141.925-506.247Z" transform="translate(-136.702 507.729)" fill="#1f1e1d" stroke="#d9cfc5" stroke-width="0.2"/>
  </g>
</svg>
