<svg xmlns="http://www.w3.org/2000/svg" width="20.532" height="20.532" viewBox="0 0 20.532 20.532">
  <path id="Shape" d="M15.166,5A10.166,10.166,0,1,0,25.332,15.166,10.166,10.166,0,0,0,15.166,5ZM10.228,22.34a7.379,7.379,0,0,1,.32-.784,5.2,5.2,0,0,1,9.251.131c.1.218.189.45.276.683a8.71,8.71,0,0,1-9.847-.029ZM21.237,21.4a.974.974,0,0,0-.16-.392,6.637,6.637,0,0,0-11.72-.145,3.31,3.31,0,0,0-.218.523,8.714,8.714,0,1,1,12.17,0ZM15.166,9.357A3.631,3.631,0,1,0,18.8,12.988,3.631,3.631,0,0,0,15.166,9.357Zm0,5.809a2.178,2.178,0,1,1,2.178-2.178A2.179,2.179,0,0,1,15.166,15.166Z" transform="translate(-4.9 -4.9)" fill="#1f1e1d" stroke="#fff" stroke-width="0.2"/>
</svg>
